PathFileType	4	(X/Y/Z)	C:/Users/beibeiliu/ov580/test_trc/User1\sequence.18_training_dense_right.trc
DataRate	CameraRate	NumFrames	NumMarkers	Units	OrigDataRate	OrigDataStartFrame	OrigNumFrames
120	120	16	19	mm	120	108	286
Frame#	Time	ThumbCMC			ThumbMCP			ThumbIP			ThumbTip			IndexMCP			IndexPIP			IndexTip			MiddleMCP			MiddlePIP			MiddleTip			RingMCP			RingPIP			RingTip			PinkyMCP			PinkyPIP			PinkyTip			BackHand1			BackHand2			BackHand3	
		X0	Y0	Z0	X1	Y1	Z1	X2	Y2	Z2	X3	Y3	Z3	X4	Y4	Z4	X5	Y5	Z5	X6	Y6	Z6	X7	Y7	Z7	X8	Y8	Z8	X9	Y9	Z9	X10	Y10	Z10	X11	Y11	Z11	X12	Y12	Z12	X13	Y13	Z13	X14	Y14	Z14	X15	Y15	Z15	X16	Y16	Z16	X17	Y17	Z17	X18	Y18	Z18	
107	0.891667	201.273	1.15911	67.7321	205.795	11.9672	29.8602	193.553	6.46383	0.0334632	165.035	2.18409	-8.08325	208.134	-44.7151	-7.75837	206.82	-24.3005	-35.0791	202.404	2.42305	-8.14551	187.297	-54.2677	-19.6259	185.146	-28.7716	-40.8528	175.601	-4.5901	-12.3698	164.819	-54.2683	-14.1193	159.671	-30.2841	-38.7312	159.543	-6.956	-17.628	138.245	-47.6039	-2.75594	143.682	-34.5659	-27.3213	150.712	-0.896812	-21.0579	151.752	-51.2243	45.5906	148.865	-44.6033	77.1418	185.152	-39.899	65.6555	
108	0.9	198.601	1.20932	66.7353	208.364	12.7668	26.5161	196.889	10.1937	-2.71513	166.183	2.3431	-8.61164	207.512	-42.2614	-7.88991	204.899	-19.3433	-34.9927	203.561	4.83375	-7.94911	187.806	-50.4158	-15.2741	181.697	-26.0039	-41.7057	179.231	-1.92942	-10.257	164.435	-51.5084	-18.3337	159.719	-26.5925	-39.0621	156.309	-2.99021	-13.1794	140.026	-45.4118	-5.95442	145.497	-30.9747	-26.9692	149.229	3.12473	-20.2661	151.127	-48.2152	45.3735	150.549	-42.3251	77.0975	185.602	-40.0836	65.2087	
109	0.908333	202.349	2.53928	66.1086	209.377	14.0683	29.1936	196.634	8.60852	-3.24544	167.333	2.49503	-8.92192	210.27	-39.5053	-7.34714	206.67	-20.764	-35.0581	203.142	7.52742	-7.67344	185.659	-48.8336	-21.5859	187.427	-22.3091	-40.7822	177.709	-0.225031	-9.72548	161.758	-48.9937	-18.5125	160.179	-25.3959	-39.4424	157.97	-1.22495	-14.3249	142.751	-43.7891	-4.2934	145.685	-25.7362	-28.5533	151.342	3.3832	-16.9392	153.831	-46.6058	44.6815	147.564	-41.7605	76.4693	184.262	-35.958	64.7859	
110	0.916667	204.906	1.5344	63.4071	210.654	15.0253	26.8345	201.243	12.0443	-2.66966	167.275	3.50037	-12.9303	207.076	-39.3621	-8.29209	205.842	-16.2373	-34.3586	205.848	8.29425	-9.49376	190.381	-47.1481	-17.8811	185.388	-17.3483	-39.7155	180.031	1.20581	-6.49188	163.754	-46.8713	-16.2944	166.159	-18.7298	-38.3361	162.012	0.120166	-14.8566	142.332	-42.3167	-5.08723	149.275	-24.6085	-26.931	150.598	7.63721	-17.5728	153.302	-45.4301	45.1275	148.518	-37.1739	77.9107	187.041	-37.9351	63.2088	
111	0.925	202.591	1.44942	63.7055	211.609	14.6586	28.8701	203.139	11.606	-0.678842	171.577	5.24293	-11.5309	209.359	-39.5333	-9.57051	208.339	-16.4777	-34.9837	208.821	7.49833	-9.03509	188.251	-46.5268	-19.2178	189.586	-19.3511	-40.8313	183.992	1.47014	-3.59424	163.927	-45.5866	-18.0585	167.312	-18.9942	-37.4073	162.939	1.79222	-9.97741	144.241	-38.7508	-2.76278	149.213	-21.7867	-27.1556	152.717	7.44802	-17.2003	159.499	-45.5437	42.5489	147.607	-38.6245	75.55	187.581	-36.1242	67.0745	
112	0.933333	205.179	0.700314	64.5856	212.327	10.7766	28.149	203.474	9.75085	0.201643	171.816	5.22321	-11.3386	212.793	-38.931	-8.42235	209.069	-16.9997	-34.4239	208.191	5.79363	-11.6291	192.364	-44.6788	-22.7088	188.336	-19.0963	-41.1014	188.212	2.4452	-5.37554	168.644	-44.5103	-19.6104	168.399	-15.6293	-37.6745	163.805	2.72855	-7.99675	143.195	-37.728	-5.04793	148.397	-18.4611	-29.7416	154.722	9.57794	-14.2689	156.936	-47.3411	41.7386	149.724	-38.462	74.9224	187.717	-35.4866	63.6114	
113	0.941667	208.35	1.69834	66.993	218.525	14.6742	28.6561	205.136	8.10031	-2.91811	175.244	7.88054	-12.2995	210.615	-40.5249	-9.36576	213.244	-20.5857	-35.1513	209.137	7.26241	-7.23119	187.059	-44.8462	-20.5765	188.072	-13.9087	-39.1071	187.357	3.06934	-8.18295	168.982	-41.8424	-20.0075	165.535	-14.1662	-38.5615	166.163	4.94457	-7.64169	144.082	-35.7653	-9.00063	153.362	-15.572	-28.399	156.262	11.649	-16.4033	157.863	-43.9336	40.3353	150.467	-33.6983	76.4423	187.807	-34.3549	65.1955	
114	0.95	208.901	0.436029	64.6645	218.716	12.6396	30.5699	206.487	9.11902	3.14414	176.352	5.58507	-9.78069	213.429	-39.8105	-10.1474	213.133	-17.6177	-33.9889	210.646	6.48446	-7.2244	188.332	-45.2347	-23.1076	193.26	-17.223	-39.9447	190.456	2.87491	-6.94844	170.686	-41.3779	-20.7959	169.156	-10.68	-37.7352	166.067	6.10933	-11.748	143.126	-35.0857	-8.01072	152.826	-13.1945	-29.5506	157.612	12.9923	-15.657	155.517	-42.9918	44.3189	153.245	-36.5771	73.0277	189.034	-33.8362	65.4946	
115	0.958333	209.607	2.11931	68.9418	223.385	12.5742	30.8992	212.789	9.42662	1.86431	181.585	6.99499	-7.0422	212.398	-40.793	-8.28071	216.336	-17.2958	-33.4159	218.55	5.71518	-4.27732	193.258	-44.5006	-21.3915	193.521	-11.8584	-38.3542	194.7	2.63771	-1.18527	167.644	-39.8619	-18.4472	174.216	-12.2982	-38.0776	169.326	7.11827	-10.4763	148.529	-32.395	-9.09591	157.674	-11.7892	-27.746	165.02	12.8648	-13.0915	157.372	-40.8625	43.7751	152.035	-32.8705	74.3473	187.242	-37.6724	63.6429	
116	0.966667	208.724	-1.89526	67.5994	225.53	9.31931	32.7251	217.286	7.17383	1.58447	188.77	8.19228	-8.38637	215.52	-41.0052	-7.45879	222.091	-16.1474	-31.5293	218.51	4.06218	-0.515149	197.861	-43.1254	-21.8584	197.529	-11.3614	-36.2719	194.95	2.34696	-1.02594	174.163	-37.6632	-22.019	176.886	-9.91863	-38.0785	175.143	8.13029	-11.1809	153.31	-30.8489	-9.46623	160.271	-13.088	-29.2829	170.496	13.8742	-10.4637	161.043	-41.3045	39.831	152.473	-32.857	76.7684	190.019	-36.5227	67.5071	
117	0.975	209.214	-1.80933	69.2307	229.814	9.60268	36.8943	218.084	5.90869	7.96597	190.921	8.80383	-9.34205	222.613	-41.2576	-8.06376	226.895	-17.8657	-28.6659	223.888	3.52267	0.729115	200.433	-42.1532	-20.0429	206.24	-15.6152	-37.0283	200.329	2.80255	-0.11401	175.428	-36.4486	-21.3881	182.889	-8.9959	-36.3697	181.956	9.90737	-6.18393	154.117	-27.974	-13.1077	165.122	-10.277	-29.5633	174.704	17.1082	-8.68351	162.426	-39.7312	39.8773	148.446	-29.6101	72.8967	190.158	-36.7386	62.9006	
118	0.983333	212.33	-0.987734	74.1857	229.943	6.63971	37.9338	225.085	7.87818	9.70441	196.714	9.08308	-6.77093	224.223	-40.758	-2.0961	230.885	-18.8263	-26.8652	229.732	3.66961	2.47618	203.471	-41.0916	-15.6834	211.126	-14.01	-35.2022	201.889	3.8349	0.390623	179.967	-34.6556	-23.494	187.569	-4.05511	-34.7204	187.983	11.3471	-6.29687	157.2	-25.8172	-8.78524	169.363	-3.39629	-29.8115	179.075	17.7154	-11.2853	160.641	-38.2956	41.4931	148.873	-28.4128	71.4264	189.188	-37.6188	64.0743	
119	0.991667	213.551	0.272791	73.5443	233.607	8.77655	40.4489	226.784	7.47605	12.3778	201.575	11.194	-4.69779	228.192	-39.9871	1.19567	232.795	-16.5133	-23.6366	231.155	4.1313	4.24756	208.586	-40.9273	-17.5865	216.132	-11.546	-32.4783	205.622	4.83238	-0.3609	186.516	-34.2002	-17.785	193.337	-3.71109	-33.6032	192.346	11.127	-7.63225	158.859	-24.4002	-9.04024	176.539	-4.36396	-28.1076	184.374	19.5061	-10.1961	164.404	-34.4673	42.4957	153.897	-28.6612	70.5811	192.887	-33.4388	66.4875	
120	1	215.91	1.72327	76.4749	237.477	8.34494	40.3747	228.622	7.44464	11.9269	204.662	11.2421	-4.68875	230.203	-39.4833	-2.07241	239.052	-17.0164	-21.6545	233.533	4.90384	4.95698	214.663	-40.0556	-15.6724	219.533	-13.3456	-32.2194	211.317	6.20379	2.79134	189.602	-33.215	-17.6304	197.779	-5.97456	-34.6183	193.559	13.0422	-7.15663	163.18	-22.9642	-9.66401	178.922	-7.02164	-29.6677	189.242	21.0866	-11.4267	168.792	-34.9571	39.4891	154.293	-25.6949	73.9788	192.639	-34.0094	67.7851	
121	1.00833	217.813	2.41179	76.9298	238.867	13.2304	46.2027	230.886	7.82715	12.1863	207.484	12.5763	-4.72011	231.938	-38.6072	2.93213	244.219	-15.35	-18.8129	237.644	5.96808	9.32944	212.093	-39.2893	-12.2637	224.411	-12.6582	-30.8268	212.608	5.21192	6.10545	190.561	-32.83	-17.9457	201.117	-3.2699	-32.3473	199.535	13.4498	-3.35442	168.657	-22.5189	-10.8375	185.093	-7.11856	-28.015	192.729	22.6945	-12.9093	169.069	-33.7237	40.2705	153.986	-23.3251	69.7287	191.887	-31.192	65.4078	
122	1.01667	220.668	3.5106	77.6285	242.075	14.2696	45.6719	234.363	10.8544	14.9243	208.934	12.1433	-1.08879	237.858	-36.8849	1.81949	246.511	-13.2188	-18.9408	243.275	7.22559	5.38699	216.667	-37.8806	-10.8212	225.045	-10.878	-30.3616	218.23	7.8091	5.58306	194.446	-30.6128	-19.1791	205.806	-1.80572	-32.6122	199.398	15.9633	-3.6882	175.497	-21.2314	-10.9282	187.523	-6.53975	-27.6289	192.439	25.2287	-12.4123	169.457	-33.2937	38.6574	153.47	-21.0988	71.7906	196.36	-29.5339	71.4742	
